<svg xmlns="http://www.w3.org/2000/svg" viewBox="0 0 860 328" width="860" height="328" role="img" aria-label="Statistiques GitHub de zaderlyl : 285 contributions sur 12 mois, streak actuelle 4 jours, meilleure streak 7 jours">
  <defs>
    <linearGradient id="bg2" x1="0" y1="0" x2="0" y2="1">
      <stop offset="0" stop-color="#111318"/>
      <stop offset="1" stop-color="#0a0b0d"/>
    </linearGradient>
    <clipPath id="round2"><rect x="0" y="0" width="860" height="328" rx="14"/></clipPath>
  </defs>
  <g clip-path="url(#round2)">
    <rect width="860" height="328" fill="url(#bg2)"/>
    <rect x="0" y="0" width="860" height="36" fill="#1c1f26"/>
    <line x1="0" y1="36" x2="860" y2="36" stroke="#2a2e37" stroke-width="1"/>
    <circle cx="22" cy="18" r="5.5" fill="#e6675f"/>
    <circle cx="41" cy="18" r="5.5" fill="#e6b95f"/>
    <circle cx="60" cy="18" r="5.5" fill="#5fbf6e"/>
    <text x="430" y="23" text-anchor="middle" font-family="ui-monospace,SFMono-Regular,Menlo,Consolas,monospace" font-size="12.5" fill="#7b8394">gh stats --user zaderlyl</text>

    <g font-family="ui-monospace,SFMono-Regular,Menlo,Consolas,monospace">
      <rect x="24" y="56" width="264" height="92" rx="10" fill="#14161b" stroke="#2a2e37"/>
      <text x="46" y="102" font-size="34" font-weight="700" fill="#3987e5">285</text>
      <text x="46" y="126" font-size="12.5" fill="#7b8394">contributions · 12 derniers mois</text>

      <rect x="298" y="56" width="264" height="92" rx="10" fill="#14161b" stroke="#2a2e37"/>
      <text x="320" y="102" font-size="34" font-weight="700" fill="#eda100">4 🔥</text>
      <text x="320" y="126" font-size="12.5" fill="#7b8394">jours · streak actuelle</text>

      <rect x="572" y="56" width="264" height="92" rx="10" fill="#14161b" stroke="#2a2e37"/>
      <text x="594" y="102" font-size="34" font-weight="700" fill="#4fbf8a">7 🔥</text>
      <text x="594" y="126" font-size="12.5" fill="#7b8394">jours · meilleure streak</text>

      <text x="24" y="178" font-size="13" fill="#aeb3bf">Langages les plus utilisés — 7 dépôts publics</text>
      <rect x="24.0" y="190" width="216.3" height="14" fill="#563d7c"/>
      <rect x="240.3" y="190" width="194.2" height="14" fill="#dea584"/>
      <rect x="434.4" y="190" width="189.4" height="14" fill="#e34c26"/>
      <rect x="623.8" y="190" width="185.2" height="14" fill="#f1e05a"/>
      <rect x="809.0" y="190" width="7.9" height="14" fill="#b07219"/>
      <rect x="816.9" y="190" width="6.1" height="14" fill="#89e051"/>
      <rect x="823.0" y="190" width="13.0" height="14" fill="#7b8394"/>

      <g font-size="13" fill="#eef0f4">
        <circle cx="30" cy="230" r="5" fill="#563d7c"/><text x="42" y="234" fill="#eef0f4">CSS</text><text x="140" y="234" fill="#7b8394">26.6%</text>
        <circle cx="246" cy="230" r="5" fill="#dea584"/><text x="258" y="234" fill="#eef0f4">Rust</text><text x="356" y="234" fill="#7b8394">23.9%</text>
        <circle cx="456" cy="230" r="5" fill="#e34c26"/><text x="468" y="234" fill="#eef0f4">HTML</text><text x="566" y="234" fill="#7b8394">23.3%</text>
        <circle cx="30" cy="256" r="5" fill="#f1e05a"/><text x="42" y="260" fill="#eef0f4">JavaScript</text><text x="140" y="260" fill="#7b8394">22.8%</text>
        <circle cx="246" cy="256" r="5" fill="#b07219"/><text x="258" y="260" fill="#eef0f4">Java</text><text x="356" y="260" fill="#7b8394">1.0%</text>
        <circle cx="456" cy="256" r="5" fill="#89e051"/><text x="468" y="260" fill="#eef0f4">Shell</text><text x="566" y="260" fill="#7b8394">0.8%</text>
        <circle cx="30" cy="282" r="5" fill="#7b8394"/><text x="42" y="286" fill="#eef0f4">Autres</text><text x="140" y="286" fill="#7b8394">1.6%</text>
      </g>

      <text x="24" y="310" font-size="11" fill="#4a4f5c">instanté · zaderlyl/zaderlyl · régénéré via GitHub Actions</text>
    </g>
  </g>
  <rect x="0.5" y="0.5" width="859" height="327" rx="14" fill="none" stroke="#2a2e37"/>
</svg>
